# xmcd CD database file
#
# Track frame offsets:
#	150
#	41087
#	91653
#	112433
#	159215
#	210196
#	244299
#	295546
#
# Disc length: 4189 seconds
#
# Revision: 2
# Processed by: cddbd v1.5.2PL0 Copyright (c) Steve Scherf et al.
# Submitted via: CDex 1.83
#
DISCID=64105b08
DTITLE=The Fonda/Stevens Group - Live from Spielboden - 20th Anniv. Tour
DYEAR=2012
DGENRE=Jazz
TTITLE0=Round Trip
TTITLE1=What Do You Think
TTITLE2=My Song
TTITLE3=Polymorphous
TTITLE4=Seamless
TTITLE5=A Summers's Morning
TTITLE6=BH+I
TTITLE7=The Gospel Truth
EXTD=YEAR: 2012
EXTT0=
EXTT1=
EXTT2=
EXTT3=
EXTT4=
EXTT5=
EXTT6=
EXTT7=
PLAYORDER=
